<mxfile host="app.diagrams.net" modified="2023-12-05T08:18:19.291Z" agent="Mozilla/5.0 (Windows NT 10.0; Win64; x64) AppleWebKit/537.36 (KHTML, like Gecko) Chrome/119.0.0.0 Safari/537.36 OPR/105.0.0.0" etag="loV4rKADVx8EG4LeKqVH" version="22.1.5" type="github">
  <diagram id="R2lEEEUBdFMjLlhIrx00" name="Page-1">
    <mxGraphModel dx="1024" dy="1264" grid="1" gridSize="10" guides="1" tooltips="1" connect="1" arrows="1" fold="1" page="1" pageScale="1" pageWidth="850" pageHeight="1100" math="0" shadow="0" extFonts="Permanent Marker^https://fonts.googleapis.com/css?family=Permanent+Marker">
      <root>
        <mxCell id="0" />
        <mxCell id="1" parent="0" />
        <mxCell id="sDTvrfoOXpOqvcDbAjL7-25" style="edgeStyle=none;curved=1;rounded=0;orthogonalLoop=1;jettySize=auto;html=1;exitX=1;exitY=0.5;exitDx=0;exitDy=0;entryX=0;entryY=0.5;entryDx=0;entryDy=0;fontSize=12;startSize=8;endSize=8;" edge="1" parent="1" source="sDTvrfoOXpOqvcDbAjL7-3" target="sDTvrfoOXpOqvcDbAjL7-24">
          <mxGeometry relative="1" as="geometry" />
        </mxCell>
        <mxCell id="sDTvrfoOXpOqvcDbAjL7-3" value="Person" style="rounded=0;whiteSpace=wrap;html=1;fontSize=16;" vertex="1" parent="1">
          <mxGeometry x="260" y="350" width="120" height="60" as="geometry" />
        </mxCell>
        <mxCell id="sDTvrfoOXpOqvcDbAjL7-6" value="" style="edgeStyle=none;curved=1;rounded=0;orthogonalLoop=1;jettySize=auto;html=1;fontSize=12;startSize=8;endSize=8;" edge="1" parent="1" source="sDTvrfoOXpOqvcDbAjL7-5" target="sDTvrfoOXpOqvcDbAjL7-3">
          <mxGeometry relative="1" as="geometry" />
        </mxCell>
        <mxCell id="sDTvrfoOXpOqvcDbAjL7-5" value="Name" style="ellipse;whiteSpace=wrap;html=1;fontSize=16;" vertex="1" parent="1">
          <mxGeometry x="100" y="350" width="120" height="60" as="geometry" />
        </mxCell>
        <mxCell id="sDTvrfoOXpOqvcDbAjL7-22" style="edgeStyle=none;curved=1;rounded=0;orthogonalLoop=1;jettySize=auto;html=1;exitX=1;exitY=1;exitDx=0;exitDy=0;entryX=0;entryY=0.25;entryDx=0;entryDy=0;fontSize=12;startSize=8;endSize=8;" edge="1" parent="1" source="sDTvrfoOXpOqvcDbAjL7-13" target="sDTvrfoOXpOqvcDbAjL7-3">
          <mxGeometry relative="1" as="geometry" />
        </mxCell>
        <mxCell id="sDTvrfoOXpOqvcDbAjL7-13" value="PersonalNr." style="ellipse;whiteSpace=wrap;html=1;fontSize=16;" vertex="1" parent="1">
          <mxGeometry x="100" y="260" width="120" height="60" as="geometry" />
        </mxCell>
        <mxCell id="sDTvrfoOXpOqvcDbAjL7-21" style="edgeStyle=none;curved=1;rounded=0;orthogonalLoop=1;jettySize=auto;html=1;exitX=1;exitY=0;exitDx=0;exitDy=0;entryX=0;entryY=0.75;entryDx=0;entryDy=0;fontSize=12;startSize=8;endSize=8;" edge="1" parent="1" source="sDTvrfoOXpOqvcDbAjL7-14" target="sDTvrfoOXpOqvcDbAjL7-3">
          <mxGeometry relative="1" as="geometry" />
        </mxCell>
        <mxCell id="sDTvrfoOXpOqvcDbAjL7-14" value="Einstufung" style="ellipse;whiteSpace=wrap;html=1;fontSize=16;" vertex="1" parent="1">
          <mxGeometry x="100" y="440" width="120" height="60" as="geometry" />
        </mxCell>
        <mxCell id="sDTvrfoOXpOqvcDbAjL7-20" style="edgeStyle=none;curved=1;rounded=0;orthogonalLoop=1;jettySize=auto;html=1;exitX=1;exitY=0;exitDx=0;exitDy=0;entryX=0.25;entryY=1;entryDx=0;entryDy=0;fontSize=12;startSize=8;endSize=8;" edge="1" parent="1" source="sDTvrfoOXpOqvcDbAjL7-15" target="sDTvrfoOXpOqvcDbAjL7-16">
          <mxGeometry relative="1" as="geometry" />
        </mxCell>
        <mxCell id="sDTvrfoOXpOqvcDbAjL7-15" value="Gehalt" style="ellipse;whiteSpace=wrap;html=1;fontSize=16;" vertex="1" parent="1">
          <mxGeometry x="100" y="670" width="120" height="60" as="geometry" />
        </mxCell>
        <mxCell id="sDTvrfoOXpOqvcDbAjL7-19" style="edgeStyle=none;curved=1;rounded=0;orthogonalLoop=1;jettySize=auto;html=1;exitX=0.5;exitY=0;exitDx=0;exitDy=0;fontSize=12;startSize=8;endSize=8;entryX=0;entryY=1;entryDx=0;entryDy=0;" edge="1" parent="1" source="sDTvrfoOXpOqvcDbAjL7-16" target="sDTvrfoOXpOqvcDbAjL7-17">
          <mxGeometry relative="1" as="geometry">
            <mxPoint x="320" y="540" as="targetPoint" />
          </mxGeometry>
        </mxCell>
        <mxCell id="sDTvrfoOXpOqvcDbAjL7-16" value="Arbeiter" style="rounded=0;whiteSpace=wrap;html=1;fontSize=16;" vertex="1" parent="1">
          <mxGeometry x="190" y="580" width="120" height="60" as="geometry" />
        </mxCell>
        <mxCell id="sDTvrfoOXpOqvcDbAjL7-18" style="edgeStyle=none;curved=1;rounded=0;orthogonalLoop=1;jettySize=auto;html=1;exitX=0.5;exitY=0;exitDx=0;exitDy=0;entryX=0.5;entryY=1;entryDx=0;entryDy=0;fontSize=12;startSize=8;endSize=8;" edge="1" parent="1" source="sDTvrfoOXpOqvcDbAjL7-17" target="sDTvrfoOXpOqvcDbAjL7-3">
          <mxGeometry relative="1" as="geometry" />
        </mxCell>
        <mxCell id="sDTvrfoOXpOqvcDbAjL7-17" value="is a" style="rhombus;whiteSpace=wrap;html=1;fontSize=16;" vertex="1" parent="1">
          <mxGeometry x="280" y="460" width="80" height="80" as="geometry" />
        </mxCell>
        <mxCell id="sDTvrfoOXpOqvcDbAjL7-27" style="edgeStyle=none;curved=1;rounded=0;orthogonalLoop=1;jettySize=auto;html=1;exitX=1;exitY=0.5;exitDx=0;exitDy=0;entryX=0;entryY=0.5;entryDx=0;entryDy=0;fontSize=12;startSize=8;endSize=8;" edge="1" parent="1" source="sDTvrfoOXpOqvcDbAjL7-24" target="sDTvrfoOXpOqvcDbAjL7-26">
          <mxGeometry relative="1" as="geometry" />
        </mxCell>
        <mxCell id="sDTvrfoOXpOqvcDbAjL7-24" value="arbeitet in" style="rhombus;whiteSpace=wrap;html=1;fontSize=16;" vertex="1" parent="1">
          <mxGeometry x="430" y="360" width="80" height="80" as="geometry" />
        </mxCell>
        <mxCell id="sDTvrfoOXpOqvcDbAjL7-49" style="edgeStyle=none;curved=1;rounded=0;orthogonalLoop=1;jettySize=auto;html=1;exitX=0.75;exitY=1;exitDx=0;exitDy=0;entryX=0.5;entryY=0;entryDx=0;entryDy=0;fontSize=12;startSize=8;endSize=8;" edge="1" parent="1" source="sDTvrfoOXpOqvcDbAjL7-26" target="sDTvrfoOXpOqvcDbAjL7-44">
          <mxGeometry relative="1" as="geometry" />
        </mxCell>
        <mxCell id="sDTvrfoOXpOqvcDbAjL7-26" value="Dezernat" style="rounded=0;whiteSpace=wrap;html=1;fontSize=16;" vertex="1" parent="1">
          <mxGeometry x="560" y="340" width="120" height="60" as="geometry" />
        </mxCell>
        <mxCell id="sDTvrfoOXpOqvcDbAjL7-31" style="edgeStyle=none;curved=1;rounded=0;orthogonalLoop=1;jettySize=auto;html=1;exitX=0;exitY=1;exitDx=0;exitDy=0;entryX=1;entryY=0.25;entryDx=0;entryDy=0;fontSize=12;startSize=8;endSize=8;" edge="1" parent="1" source="sDTvrfoOXpOqvcDbAjL7-28" target="sDTvrfoOXpOqvcDbAjL7-26">
          <mxGeometry relative="1" as="geometry" />
        </mxCell>
        <mxCell id="sDTvrfoOXpOqvcDbAjL7-28" value="Bezeichnung" style="ellipse;whiteSpace=wrap;html=1;fontSize=16;" vertex="1" parent="1">
          <mxGeometry x="710" y="290" width="120" height="60" as="geometry" />
        </mxCell>
        <mxCell id="sDTvrfoOXpOqvcDbAjL7-30" style="edgeStyle=none;curved=1;rounded=0;orthogonalLoop=1;jettySize=auto;html=1;exitX=0;exitY=0;exitDx=0;exitDy=0;entryX=1;entryY=0.75;entryDx=0;entryDy=0;fontSize=12;startSize=8;endSize=8;" edge="1" parent="1" source="sDTvrfoOXpOqvcDbAjL7-29" target="sDTvrfoOXpOqvcDbAjL7-26">
          <mxGeometry relative="1" as="geometry" />
        </mxCell>
        <mxCell id="sDTvrfoOXpOqvcDbAjL7-29" value="Aufgabengebiet" style="ellipse;whiteSpace=wrap;html=1;fontSize=16;" vertex="1" parent="1">
          <mxGeometry x="710" y="390" width="120" height="60" as="geometry" />
        </mxCell>
        <mxCell id="sDTvrfoOXpOqvcDbAjL7-33" value="" style="edgeStyle=none;curved=1;rounded=0;orthogonalLoop=1;jettySize=auto;html=1;fontSize=12;startSize=8;endSize=8;entryX=1;entryY=1;entryDx=0;entryDy=0;exitX=0.5;exitY=0;exitDx=0;exitDy=0;" edge="1" parent="1" source="sDTvrfoOXpOqvcDbAjL7-32" target="sDTvrfoOXpOqvcDbAjL7-17">
          <mxGeometry relative="1" as="geometry" />
        </mxCell>
        <mxCell id="sDTvrfoOXpOqvcDbAjL7-32" value="Beamter" style="rounded=0;whiteSpace=wrap;html=1;fontSize=16;" vertex="1" parent="1">
          <mxGeometry x="330" y="580" width="120" height="60" as="geometry" />
        </mxCell>
        <mxCell id="sDTvrfoOXpOqvcDbAjL7-35" style="edgeStyle=none;curved=1;rounded=0;orthogonalLoop=1;jettySize=auto;html=1;exitX=0.5;exitY=0;exitDx=0;exitDy=0;entryX=0.5;entryY=1;entryDx=0;entryDy=0;fontSize=12;startSize=8;endSize=8;" edge="1" parent="1" source="sDTvrfoOXpOqvcDbAjL7-34" target="sDTvrfoOXpOqvcDbAjL7-32">
          <mxGeometry relative="1" as="geometry" />
        </mxCell>
        <mxCell id="sDTvrfoOXpOqvcDbAjL7-34" value="is-a" style="rhombus;whiteSpace=wrap;html=1;fontSize=16;" vertex="1" parent="1">
          <mxGeometry x="350" y="680" width="80" height="80" as="geometry" />
        </mxCell>
        <mxCell id="sDTvrfoOXpOqvcDbAjL7-37" style="edgeStyle=none;curved=1;rounded=0;orthogonalLoop=1;jettySize=auto;html=1;exitX=0.5;exitY=0;exitDx=0;exitDy=0;entryX=0.5;entryY=1;entryDx=0;entryDy=0;fontSize=12;startSize=8;endSize=8;" edge="1" parent="1" source="sDTvrfoOXpOqvcDbAjL7-36" target="sDTvrfoOXpOqvcDbAjL7-34">
          <mxGeometry relative="1" as="geometry" />
        </mxCell>
        <mxCell id="sDTvrfoOXpOqvcDbAjL7-36" value="gewÃ¤hlt" style="rounded=0;whiteSpace=wrap;html=1;fontSize=16;" vertex="1" parent="1">
          <mxGeometry x="330" y="800" width="120" height="60" as="geometry" />
        </mxCell>
        <mxCell id="sDTvrfoOXpOqvcDbAjL7-52" style="edgeStyle=none;curved=1;rounded=0;orthogonalLoop=1;jettySize=auto;html=1;exitX=1;exitY=0;exitDx=0;exitDy=0;entryX=0;entryY=0.5;entryDx=0;entryDy=0;fontSize=12;startSize=8;endSize=8;" edge="1" parent="1" source="sDTvrfoOXpOqvcDbAjL7-38" target="sDTvrfoOXpOqvcDbAjL7-34">
          <mxGeometry relative="1" as="geometry" />
        </mxCell>
        <mxCell id="sDTvrfoOXpOqvcDbAjL7-38" value="ernannt" style="rounded=0;whiteSpace=wrap;html=1;fontSize=16;" vertex="1" parent="1">
          <mxGeometry x="160" y="800" width="120" height="60" as="geometry" />
        </mxCell>
        <mxCell id="sDTvrfoOXpOqvcDbAjL7-43" style="edgeStyle=none;curved=1;rounded=0;orthogonalLoop=1;jettySize=auto;html=1;exitX=0;exitY=0.5;exitDx=0;exitDy=0;entryX=1;entryY=0.25;entryDx=0;entryDy=0;fontSize=12;startSize=8;endSize=8;" edge="1" parent="1" source="sDTvrfoOXpOqvcDbAjL7-40" target="sDTvrfoOXpOqvcDbAjL7-32">
          <mxGeometry relative="1" as="geometry" />
        </mxCell>
        <mxCell id="sDTvrfoOXpOqvcDbAjL7-40" value="VergÃ¼tung" style="ellipse;whiteSpace=wrap;html=1;fontSize=16;" vertex="1" parent="1">
          <mxGeometry x="480" y="540" width="120" height="60" as="geometry" />
        </mxCell>
        <mxCell id="sDTvrfoOXpOqvcDbAjL7-42" style="edgeStyle=none;curved=1;rounded=0;orthogonalLoop=1;jettySize=auto;html=1;exitX=0;exitY=0.5;exitDx=0;exitDy=0;entryX=1;entryY=0.75;entryDx=0;entryDy=0;fontSize=12;startSize=8;endSize=8;" edge="1" parent="1" source="sDTvrfoOXpOqvcDbAjL7-41" target="sDTvrfoOXpOqvcDbAjL7-32">
          <mxGeometry relative="1" as="geometry" />
        </mxCell>
        <mxCell id="sDTvrfoOXpOqvcDbAjL7-41" value="Einstufung" style="ellipse;whiteSpace=wrap;html=1;fontSize=16;" vertex="1" parent="1">
          <mxGeometry x="480" y="620" width="120" height="60" as="geometry" />
        </mxCell>
        <mxCell id="sDTvrfoOXpOqvcDbAjL7-48" style="edgeStyle=none;curved=1;rounded=0;orthogonalLoop=1;jettySize=auto;html=1;exitX=0;exitY=0.5;exitDx=0;exitDy=0;entryX=1;entryY=0.5;entryDx=0;entryDy=0;fontSize=12;startSize=8;endSize=8;" edge="1" parent="1" source="sDTvrfoOXpOqvcDbAjL7-44" target="sDTvrfoOXpOqvcDbAjL7-36">
          <mxGeometry relative="1" as="geometry" />
        </mxCell>
        <mxCell id="sDTvrfoOXpOqvcDbAjL7-44" value="leitet" style="rhombus;whiteSpace=wrap;html=1;fontSize=16;" vertex="1" parent="1">
          <mxGeometry x="610" y="790" width="80" height="80" as="geometry" />
        </mxCell>
        <mxCell id="sDTvrfoOXpOqvcDbAjL7-53" value="1:1" style="text;html=1;strokeColor=none;fillColor=none;align=center;verticalAlign=middle;whiteSpace=wrap;rounded=0;fontSize=16;" vertex="1" parent="1">
          <mxGeometry x="395" y="360" width="30" height="30" as="geometry" />
        </mxCell>
        <mxCell id="sDTvrfoOXpOqvcDbAjL7-54" value="1:1" style="text;html=1;strokeColor=none;fillColor=none;align=center;verticalAlign=middle;whiteSpace=wrap;rounded=0;fontSize=16;" vertex="1" parent="1">
          <mxGeometry x="650" y="555" width="30" height="30" as="geometry" />
        </mxCell>
        <mxCell id="sDTvrfoOXpOqvcDbAjL7-55" value="0:1" style="text;html=1;strokeColor=none;fillColor=none;align=center;verticalAlign=middle;whiteSpace=wrap;rounded=0;fontSize=16;" vertex="1" parent="1">
          <mxGeometry x="510" y="830" width="30" height="30" as="geometry" />
        </mxCell>
        <mxCell id="sDTvrfoOXpOqvcDbAjL7-56" value="1:n" style="text;html=1;strokeColor=none;fillColor=none;align=center;verticalAlign=middle;whiteSpace=wrap;rounded=0;fontSize=16;" vertex="1" parent="1">
          <mxGeometry x="510" y="355" width="30" height="30" as="geometry" />
        </mxCell>
      </root>
    </mxGraphModel>
  </diagram>
</mxfile>
